  0
SECTION
  2
HEADER
  9
$ACADVER
  1
AC1009
  9
$EXTMIN
 10
0.0
 20
0.0
 30
0.0
  9
$EXTMAX
 10
1000.0
 20
1000.0
 30
0.0
  9
$FILLMODE
 70
 0
  9
$SPLFRAME
 70
 1
  0
ENDSEC
  0
SECTION
  2
TABLES
  0
TABLE
  2
LAYER
 70
5
  0
LAYER
  2
0
 70
     0
 62
     7
  6
CONTINUOUS
  0
LAYER
  2
C00-00-00-BLACK
 70
0
 62
7
  6
CONTINUOUS
  0
LAYER
  2
CFF-FF-FF-WHITE
 70
0
 62
7
  6
CONTINUOUS
  0
LAYER
  2
CE2-00-16
 70
0
 62
1
  6
CONTINUOUS
  0
ENDTAB
  0
ENDSEC
  0
SECTION
  2
ENTITIES
  0
POLYLINE
  8
CE2-00-16
 66
     1
 10
0
 20
0
 30
0.0
 70
     1
 40
0.375
 41
0.375
  0
VERTEX
  8
CE2-00-16
 10
10.1244
 20
221.099
 30
0.0
 40
0.132292
 41
0.132292
  0
VERTEX
  8
CE2-00-16
 10
10.3794
 20
221.099
 30
0.0
 40
0.132292
 41
0.132292
  0
VERTEX
  8
CE2-00-16
 10
11.1456
 20
220.894
 30
0.0
 40
0.132292
 41
0.132292
  0
VERTEX
  8
CE2-00-16
 10
11.9807
 20
220.332
 30
0.0
 40
0.132292
 41
0.132292
  0
VERTEX
  8
CE2-00-16
 10
12.5429
 20
219.498
 30
0.0
 40
0.132292
 41
0.132292
  0
VERTEX
  8
CE2-00-16
 10
12.7496
 20
218.732
 30
0.0
 40
0.132292
 41
0.132292
  0
VERTEX
  8
CE2-00-16
 10
12.7496
 20
218.476
 30
0.0
 40
0.132292
 41
0.132292
  0
VERTEX
  8
CE2-00-16
 10
12.7496
 20
218.284
 30
0.0
 40
0.132292
 41
0.132292
  0
VERTEX
  8
CE2-00-16
 10
12.6339
 20
217.707
 30
0.0
 40
0.132292
 41
0.132292
  0
VERTEX
  8
CE2-00-16
 10
12.3073
 20
217.018
 30
0.0
 40
0.132292
 41
0.132292
  0
VERTEX
  8
CE2-00-16
 10
11.796
 20
216.452
 30
0.0
 40
0.132292
 41
0.132292
  0
VERTEX
  8
CE2-00-16
 10
11.3068
 20
216.125
 30
0.0
 40
0.132292
 41
0.132292
  0
VERTEX
  8
CE2-00-16
 10
11.129
 20
216.05
 30
0.0
 40
0.132292
 41
0.132292
  0
VERTEX
  8
CE2-00-16
 10
10.9513
 20
215.977
 30
0.0
 40
0.132292
 41
0.132292
  0
VERTEX
  8
CE2-00-16
 10
10.3739
 20
215.863
 30
0.0
 40
0.132292
 41
0.132292
  0
VERTEX
  8
CE2-00-16
 10
9.61182
 20
215.901
 30
0.0
 40
0.132292
 41
0.132292
  0
VERTEX
  8
CE2-00-16
 10
8.89385
 20
216.158
 30
0.0
 40
0.132292
 41
0.132292
  0
VERTEX
  8
CE2-00-16
 10
8.40327
 20
216.484
 30
0.0
 40
0.132292
 41
0.132292
  0
VERTEX
  8
CE2-00-16
 10
8.26823
 20
216.619
 30
0.0
 40
0.132292
 41
0.132292
  0
VERTEX
  8
CE2-00-16
 10
8.13181
 20
216.756
 30
0.0
 40
0.132292
 41
0.132292
  0
VERTEX
  8
CE2-00-16
 10
7.80521
 20
217.245
 30
0.0
 40
0.132292
 41
0.132292
  0
VERTEX
  8
CE2-00-16
 10
7.55026
 20
217.963
 30
0.0
 40
0.132292
 41
0.132292
  0
VERTEX
  8
CE2-00-16
 10
7.5117
 20
218.725
 30
0.0
 40
0.132292
 41
0.132292
  0
VERTEX
  8
CE2-00-16
 10
7.62607
 20
219.303
 30
0.0
 40
0.132292
 41
0.132292
  0
VERTEX
  8
CE2-00-16
 10
7.70047
 20
219.48
 30
0.0
 40
0.132292
 41
0.132292
  0
VERTEX
  8
CE2-00-16
 10
7.77353
 20
219.658
 30
0.0
 40
0.132292
 41
0.132292
  0
VERTEX
  8
CE2-00-16
 10
8.1001
 20
220.147
 30
0.0
 40
0.132292
 41
0.132292
  0
VERTEX
  8
CE2-00-16
 10
8.66648
 20
220.658
 30
0.0
 40
0.132292
 41
0.132292
  0
VERTEX
  8
CE2-00-16
 10
9.35411
 20
220.985
 30
0.0
 40
0.132292
 41
0.132292
  0
VERTEX
  8
CE2-00-16
 10
9.93151
 20
221.099
 30
0.0
 40
0.132292
 41
0.132292
  0
VERTEX
  8
CE2-00-16
 10
10.1244
 20
221.099
 30
0.0
 40
0.132292
 41
0.132292
  0
SEQEND
 8
0
  0
POLYLINE
  8
CE2-00-16
 66
     1
 10
0
 20
0
 30
0.0
 70
     1
 40
0.375
 41
0.375
  0
VERTEX
  8
CE2-00-16
 10
10.1244
 20
116.925
 30
0.0
 40
0.132292
 41
0.132292
  0
VERTEX
  8
CE2-00-16
 10
10.3794
 20
116.925
 30
0.0
 40
0.132292
 41
0.132292
  0
VERTEX
  8
CE2-00-16
 10
11.1456
 20
116.72
 30
0.0
 40
0.132292
 41
0.132292
  0
VERTEX
  8
CE2-00-16
 10
11.9807
 20
116.156
 30
0.0
 40
0.132292
 41
0.132292
  0
VERTEX
  8
CE2-00-16
 10
12.5429
 20
115.322
 30
0.0
 40
0.132292
 41
0.132292
  0
VERTEX
  8
CE2-00-16
 10
12.7496
 20
114.556
 30
0.0
 40
0.132292
 41
0.132292
  0
VERTEX
  8
CE2-00-16
 10
12.7496
 20
114.3
 30
0.0
 40
0.132292
 41
0.132292
  0
VERTEX
  8
CE2-00-16
 10
12.7496
 20
114.108
 30
0.0
 40
0.132292
 41
0.132292
  0
VERTEX
  8
CE2-00-16
 10
12.6339
 20
113.531
 30
0.0
 40
0.132292
 41
0.132292
  0
VERTEX
  8
CE2-00-16
 10
12.3073
 20
112.842
 30
0.0
 40
0.132292
 41
0.132292
  0
VERTEX
  8
CE2-00-16
 10
11.796
 20
112.277
 30
0.0
 40
0.132292
 41
0.132292
  0
VERTEX
  8
CE2-00-16
 10
11.3068
 20
111.949
 30
0.0
 40
0.132292
 41
0.132292
  0
VERTEX
  8
CE2-00-16
 10
11.129
 20
111.875
 30
0.0
 40
0.132292
 41
0.132292
  0
VERTEX
  8
CE2-00-16
 10
10.9513
 20
111.802
 30
0.0
 40
0.132292
 41
0.132292
  0
VERTEX
  8
CE2-00-16
 10
10.3739
 20
111.687
 30
0.0
 40
0.132292
 41
0.132292
  0
VERTEX
  8
CE2-00-16
 10
9.61182
 20
111.726
 30
0.0
 40
0.132292
 41
0.132292
  0
VERTEX
  8
CE2-00-16
 10
8.89385
 20
111.982
 30
0.0
 40
0.132292
 41
0.132292
  0
VERTEX
  8
CE2-00-16
 10
8.40327
 20
112.309
 30
0.0
 40
0.132292
 41
0.132292
  0
VERTEX
  8
CE2-00-16
 10
8.26823
 20
112.444
 30
0.0
 40
0.132292
 41
0.132292
  0
VERTEX
  8
CE2-00-16
 10
8.13181
 20
112.58
 30
0.0
 40
0.132292
 41
0.132292
  0
VERTEX
  8
CE2-00-16
 10
7.80521
 20
113.071
 30
0.0
 40
0.132292
 41
0.132292
  0
VERTEX
  8
CE2-00-16
 10
7.55026
 20
113.789
 30
0.0
 40
0.132292
 41
0.132292
  0
VERTEX
  8
CE2-00-16
 10
7.5117
 20
114.549
 30
0.0
 40
0.132292
 41
0.132292
  0
VERTEX
  8
CE2-00-16
 10
7.62607
 20
115.127
 30
0.0
 40
0.132292
 41
0.132292
  0
VERTEX
  8
CE2-00-16
 10
7.70047
 20
115.305
 30
0.0
 40
0.132292
 41
0.132292
  0
VERTEX
  8
CE2-00-16
 10
7.77353
 20
115.483
 30
0.0
 40
0.132292
 41
0.132292
  0
VERTEX
  8
CE2-00-16
 10
8.1001
 20
115.973
 30
0.0
 40
0.132292
 41
0.132292
  0
VERTEX
  8
CE2-00-16
 10
8.66648
 20
116.483
 30
0.0
 40
0.132292
 41
0.132292
  0
VERTEX
  8
CE2-00-16
 10
9.35411
 20
116.811
 30
0.0
 40
0.132292
 41
0.132292
  0
VERTEX
  8
CE2-00-16
 10
9.93151
 20
116.925
 30
0.0
 40
0.132292
 41
0.132292
  0
VERTEX
  8
CE2-00-16
 10
10.1244
 20
116.925
 30
0.0
 40
0.132292
 41
0.132292
  0
SEQEND
 8
0
  0
POLYLINE
  8
CE2-00-16
 66
     1
 10
0
 20
0
 30
0.0
 70
     1
 40
0.375
 41
0.375
  0
VERTEX
  8
CE2-00-16
 10
10.1244
 20
12.7496
 30
0.0
 40
0.132292
 41
0.132292
  0
VERTEX
  8
CE2-00-16
 10
10.3794
 20
12.7496
 30
0.0
 40
0.132292
 41
0.132292
  0
VERTEX
  8
CE2-00-16
 10
11.1456
 20
12.5443
 30
0.0
 40
0.132292
 41
0.132292
  0
VERTEX
  8
CE2-00-16
 10
11.9807
 20
11.9807
 30
0.0
 40
0.132292
 41
0.132292
  0
VERTEX
  8
CE2-00-16
 10
12.5429
 20
11.147
 30
0.0
 40
0.132292
 41
0.132292
  0
VERTEX
  8
CE2-00-16
 10
12.7496
 20
10.3808
 30
0.0
 40
0.132292
 41
0.132292
  0
VERTEX
  8
CE2-00-16
 10
12.7496
 20
10.1244
 30
0.0
 40
0.132292
 41
0.132292
  0
VERTEX
  8
CE2-00-16
 10
12.7496
 20
9.93292
 30
0.0
 40
0.132292
 41
0.132292
  0
VERTEX
  8
CE2-00-16
 10
12.6339
 20
9.35549
 30
0.0
 40
0.132292
 41
0.132292
  0
VERTEX
  8
CE2-00-16
 10
12.3073
 20
8.66648
 30
0.0
 40
0.132292
 41
0.132292
  0
VERTEX
  8
CE2-00-16
 10
11.796
 20
8.10147
 30
0.0
 40
0.132292
 41
0.132292
  0
VERTEX
  8
CE2-00-16
 10
11.3068
 20
7.77353
 30
0.0
 40
0.132292
 41
0.132292
  0
VERTEX
  8
CE2-00-16
 10
11.129
 20
7.69909
 30
0.0
 40
0.132292
 41
0.132292
  0
VERTEX
  8
CE2-00-16
 10
10.9513
 20
7.62607
 30
0.0
 40
0.132292
 41
0.132292
  0
VERTEX
  8
CE2-00-16
 10
10.3739
 20
7.5117
 30
0.0
 40
0.132292
 41
0.132292
  0
VERTEX
  8
CE2-00-16
 10
9.61182
 20
7.55167
 30
0.0
 40
0.132292
 41
0.132292
  0
VERTEX
  8
CE2-00-16
 10
8.89385
 20
7.80658
 30
0.0
 40
0.132292
 41
0.132292
  0
VERTEX
  8
CE2-00-16
 10
8.40327
 20
8.13319
 30
0.0
 40
0.132292
 41
0.132292
  0
VERTEX
  8
CE2-00-16
 10
8.26823
 20
8.26823
 30
0.0
 40
0.132292
 41
0.132292
  0
VERTEX
  8
CE2-00-16
 10
8.13181
 20
8.40465
 30
0.0
 40
0.132292
 41
0.132292
  0
VERTEX
  8
CE2-00-16
 10
7.80521
 20
8.89522
 30
0.0
 40
0.132292
 41
0.132292
  0
VERTEX
  8
CE2-00-16
 10
7.55026
 20
9.61319
 30
0.0
 40
0.132292
 41
0.132292
  0
VERTEX
  8
CE2-00-16
 10
7.5117
 20
10.3753
 30
0.0
 40
0.132292
 41
0.132292
  0
VERTEX
  8
CE2-00-16
 10
7.62607
 20
10.9527
 30
0.0
 40
0.132292
 41
0.132292
  0
VERTEX
  8
CE2-00-16
 10
7.70047
 20
11.129
 30
0.0
 40
0.132292
 41
0.132292
  0
VERTEX
  8
CE2-00-16
 10
7.77353
 20
11.3068
 30
0.0
 40
0.132292
 41
0.132292
  0
VERTEX
  8
CE2-00-16
 10
8.1001
 20
11.7974
 30
0.0
 40
0.132292
 41
0.132292
  0
VERTEX
  8
CE2-00-16
 10
8.66648
 20
12.3073
 30
0.0
 40
0.132292
 41
0.132292
  0
VERTEX
  8
CE2-00-16
 10
9.35411
 20
12.6352
 30
0.0
 40
0.132292
 41
0.132292
  0
VERTEX
  8
CE2-00-16
 10
9.93151
 20
12.7496
 30
0.0
 40
0.132292
 41
0.132292
  0
VERTEX
  8
CE2-00-16
 10
10.1244
 20
12.7496
 30
0.0
 40
0.132292
 41
0.132292
  0
SEQEND
 8
0
  0
POLYLINE
  8
CE2-00-16
 66
     1
 10
0
 20
0
 30
0.0
 70
     1
 40
0.375
 41
0.375
  0
VERTEX
  8
CE2-00-16
 10
228.6
 20
12.7248
 30
0.0
 40
0.132292
 41
0.132292
  0
VERTEX
  8
CE2-00-16
 10
228.855
 20
12.7248
 30
0.0
 40
0.132292
 41
0.132292
  0
VERTEX
  8
CE2-00-16
 10
229.621
 20
12.5195
 30
0.0
 40
0.132292
 41
0.132292
  0
VERTEX
  8
CE2-00-16
 10
230.456
 20
11.9558
 30
0.0
 40
0.132292
 41
0.132292
  0
VERTEX
  8
CE2-00-16
 10
231.018
 20
11.1221
 30
0.0
 40
0.132292
 41
0.132292
  0
VERTEX
  8
CE2-00-16
 10
231.225
 20
10.356
 30
0.0
 40
0.132292
 41
0.132292
  0
VERTEX
  8
CE2-00-16
 10
231.225
 20
10.0996
 30
0.0
 40
0.132292
 41
0.132292
  0
VERTEX
  8
CE2-00-16
 10
231.225
 20
9.90808
 30
0.0
 40
0.132292
 41
0.132292
  0
VERTEX
  8
CE2-00-16
 10
231.109
 20
9.33069
 30
0.0
 40
0.132292
 41
0.132292
  0
VERTEX
  8
CE2-00-16
 10
230.783
 20
8.64168
 30
0.0
 40
0.132292
 41
0.132292
  0
VERTEX
  8
CE2-00-16
 10
230.271
 20
8.07667
 30
0.0
 40
0.132292
 41
0.132292
  0
VERTEX
  8
CE2-00-16
 10
229.783
 20
7.74869
 30
0.0
 40
0.132292
 41
0.132292
  0
VERTEX
  8
CE2-00-16
 10
229.605
 20
7.67429
 30
0.0
 40
0.132292
 41
0.132292
  0
VERTEX
  8
CE2-00-16
 10
229.426
 20
7.60127
 30
0.0
 40
0.132292
 41
0.132292
  0
VERTEX
  8
CE2-00-16
 10
228.848
 20
7.4869
 30
0.0
 40
0.132292
 41
0.132292
  0
VERTEX
  8
CE2-00-16
 10
228.087
 20
7.52683
 30
0.0
 40
0.132292
 41
0.132292
  0
VERTEX
  8
CE2-00-16
 10
227.37
 20
7.78178
 30
0.0
 40
0.132292
 41
0.132292
  0
VERTEX
  8
CE2-00-16
 10
226.879
 20
8.10839
 30
0.0
 40
0.132292
 41
0.132292
  0
VERTEX
  8
CE2-00-16
 10
226.744
 20
8.24343
 30
0.0
 40
0.132292
 41
0.132292
  0
VERTEX
  8
CE2-00-16
 10
226.608
 20
8.37985
 30
0.0
 40
0.132292
 41
0.132292
  0
VERTEX
  8
CE2-00-16
 10
226.281
 20
8.87042
 30
0.0
 40
0.132292
 41
0.132292
  0
VERTEX
  8
CE2-00-16
 10
226.024
 20
9.58839
 30
0.0
 40
0.132292
 41
0.132292
  0
VERTEX
  8
CE2-00-16
 10
225.986
 20
10.3504
 30
0.0
 40
0.132292
 41
0.132292
  0
VERTEX
  8
CE2-00-16
 10
226.1
 20
10.9279
 30
0.0
 40
0.132292
 41
0.132292
  0
VERTEX
  8
CE2-00-16
 10
226.175
 20
11.1042
 30
0.0
 40
0.132292
 41
0.132292
  0
VERTEX
  8
CE2-00-16
 10
226.248
 20
11.282
 30
0.0
 40
0.132292
 41
0.132292
  0
VERTEX
  8
CE2-00-16
 10
226.576
 20
11.7726
 30
0.0
 40
0.132292
 41
0.132292
  0
VERTEX
  8
CE2-00-16
 10
227.141
 20
12.2825
 30
0.0
 40
0.132292
 41
0.132292
  0
VERTEX
  8
CE2-00-16
 10
227.83
 20
12.6104
 30
0.0
 40
0.132292
 41
0.132292
  0
VERTEX
  8
CE2-00-16
 10
228.407
 20
12.7248
 30
0.0
 40
0.132292
 41
0.132292
  0
VERTEX
  8
CE2-00-16
 10
228.6
 20
12.7248
 30
0.0
 40
0.132292
 41
0.132292
  0
SEQEND
 8
0
  0
POLYLINE
  8
CE2-00-16
 66
     1
 10
0
 20
0
 30
0.0
 70
     1
 40
0.375
 41
0.375
  0
VERTEX
  8
CE2-00-16
 10
228.6
 20
221.099
 30
0.0
 40
0.132292
 41
0.132292
  0
VERTEX
  8
CE2-00-16
 10
228.855
 20
221.099
 30
0.0
 40
0.132292
 41
0.132292
  0
VERTEX
  8
CE2-00-16
 10
229.621
 20
220.894
 30
0.0
 40
0.132292
 41
0.132292
  0
VERTEX
  8
CE2-00-16
 10
230.456
 20
220.332
 30
0.0
 40
0.132292
 41
0.132292
  0
VERTEX
  8
CE2-00-16
 10
231.018
 20
219.498
 30
0.0
 40
0.132292
 41
0.132292
  0
VERTEX
  8
CE2-00-16
 10
231.225
 20
218.732
 30
0.0
 40
0.132292
 41
0.132292
  0
VERTEX
  8
CE2-00-16
 10
231.225
 20
218.476
 30
0.0
 40
0.132292
 41
0.132292
  0
VERTEX
  8
CE2-00-16
 10
231.225
 20
218.284
 30
0.0
 40
0.132292
 41
0.132292
  0
VERTEX
  8
CE2-00-16
 10
231.109
 20
217.707
 30
0.0
 40
0.132292
 41
0.132292
  0
VERTEX
  8
CE2-00-16
 10
230.783
 20
217.018
 30
0.0
 40
0.132292
 41
0.132292
  0
VERTEX
  8
CE2-00-16
 10
230.271
 20
216.452
 30
0.0
 40
0.132292
 41
0.132292
  0
VERTEX
  8
CE2-00-16
 10
229.783
 20
216.125
 30
0.0
 40
0.132292
 41
0.132292
  0
VERTEX
  8
CE2-00-16
 10
229.605
 20
216.05
 30
0.0
 40
0.132292
 41
0.132292
  0
VERTEX
  8
CE2-00-16
 10
229.427
 20
215.977
 30
0.0
 40
0.132292
 41
0.132292
  0
VERTEX
  8
CE2-00-16
 10
228.848
 20
215.863
 30
0.0
 40
0.132292
 41
0.132292
  0
VERTEX
  8
CE2-00-16
 10
228.087
 20
215.901
 30
0.0
 40
0.132292
 41
0.132292
  0
VERTEX
  8
CE2-00-16
 10
227.37
 20
216.158
 30
0.0
 40
0.132292
 41
0.132292
  0
VERTEX
  8
CE2-00-16
 10
226.879
 20
216.484
 30
0.0
 40
0.132292
 41
0.132292
  0
VERTEX
  8
CE2-00-16
 10
226.744
 20
216.619
 30
0.0
 40
0.132292
 41
0.132292
  0
VERTEX
  8
CE2-00-16
 10
226.608
 20
216.756
 30
0.0
 40
0.132292
 41
0.132292
  0
VERTEX
  8
CE2-00-16
 10
226.281
 20
217.245
 30
0.0
 40
0.132292
 41
0.132292
  0
VERTEX
  8
CE2-00-16
 10
226.024
 20
217.963
 30
0.0
 40
0.132292
 41
0.132292
  0
VERTEX
  8
CE2-00-16
 10
225.986
 20
218.725
 30
0.0
 40
0.132292
 41
0.132292
  0
VERTEX
  8
CE2-00-16
 10
226.1
 20
219.303
 30
0.0
 40
0.132292
 41
0.132292
  0
VERTEX
  8
CE2-00-16
 10
226.175
 20
219.48
 30
0.0
 40
0.132292
 41
0.132292
  0
VERTEX
  8
CE2-00-16
 10
226.248
 20
219.658
 30
0.0
 40
0.132292
 41
0.132292
  0
VERTEX
  8
CE2-00-16
 10
226.576
 20
220.147
 30
0.0
 40
0.132292
 41
0.132292
  0
VERTEX
  8
CE2-00-16
 10
227.141
 20
220.658
 30
0.0
 40
0.132292
 41
0.132292
  0
VERTEX
  8
CE2-00-16
 10
227.83
 20
220.985
 30
0.0
 40
0.132292
 41
0.132292
  0
VERTEX
  8
CE2-00-16
 10
228.407
 20
221.099
 30
0.0
 40
0.132292
 41
0.132292
  0
VERTEX
  8
CE2-00-16
 10
228.6
 20
221.099
 30
0.0
 40
0.132292
 41
0.132292
  0
SEQEND
 8
0
  0
POLYLINE
  8
CE2-00-16
 66
     1
 10
0
 20
0
 30
0.0
 70
     1
 40
0.375
 41
0.375
  0
VERTEX
  8
CE2-00-16
 10
447.075
 20
221.099
 30
0.0
 40
0.132292
 41
0.132292
  0
VERTEX
  8
CE2-00-16
 10
447.329
 20
221.099
 30
0.0
 40
0.132292
 41
0.132292
  0
VERTEX
  8
CE2-00-16
 10
448.098
 20
220.894
 30
0.0
 40
0.132292
 41
0.132292
  0
VERTEX
  8
CE2-00-16
 10
448.931
 20
220.332
 30
0.0
 40
0.132292
 41
0.132292
  0
VERTEX
  8
CE2-00-16
 10
449.495
 20
219.498
 30
0.0
 40
0.132292
 41
0.132292
  0
VERTEX
  8
CE2-00-16
 10
449.7
 20
218.732
 30
0.0
 40
0.132292
 41
0.132292
  0
VERTEX
  8
CE2-00-16
 10
449.7
 20
218.476
 30
0.0
 40
0.132292
 41
0.132292
  0
VERTEX
  8
CE2-00-16
 10
449.7
 20
218.284
 30
0.0
 40
0.132292
 41
0.132292
  0
VERTEX
  8
CE2-00-16
 10
449.584
 20
217.707
 30
0.0
 40
0.132292
 41
0.132292
  0
VERTEX
  8
CE2-00-16
 10
449.255
 20
217.018
 30
0.0
 40
0.132292
 41
0.132292
  0
VERTEX
  8
CE2-00-16
 10
448.747
 20
216.452
 30
0.0
 40
0.132292
 41
0.132292
  0
VERTEX
  8
CE2-00-16
 10
448.257
 20
216.125
 30
0.0
 40
0.132292
 41
0.132292
  0
VERTEX
  8
CE2-00-16
 10
448.081
 20
216.05
 30
0.0
 40
0.132292
 41
0.132292
  0
VERTEX
  8
CE2-00-16
 10
447.901
 20
215.977
 30
0.0
 40
0.132292
 41
0.132292
  0
VERTEX
  8
CE2-00-16
 10
447.322
 20
215.863
 30
0.0
 40
0.132292
 41
0.132292
  0
VERTEX
  8
CE2-00-16
 10
446.564
 20
215.901
 30
0.0
 40
0.132292
 41
0.132292
  0
VERTEX
  8
CE2-00-16
 10
445.844
 20
216.158
 30
0.0
 40
0.132292
 41
0.132292
  0
VERTEX
  8
CE2-00-16
 10
445.354
 20
216.484
 30
0.0
 40
0.132292
 41
0.132292
  0
VERTEX
  8
CE2-00-16
 10
445.22
 20
216.619
 30
0.0
 40
0.132292
 41
0.132292
  0
VERTEX
  8
CE2-00-16
 10
445.082
 20
216.756
 30
0.0
 40
0.132292
 41
0.132292
  0
VERTEX
  8
CE2-00-16
 10
444.758
 20
217.245
 30
0.0
 40
0.132292
 41
0.132292
  0
VERTEX
  8
CE2-00-16
 10
444.5
 20
217.963
 30
0.0
 40
0.132292
 41
0.132292
  0
VERTEX
  8
CE2-00-16
 10
444.461
 20
218.725
 30
0.0
 40
0.132292
 41
0.132292
  0
VERTEX
  8
CE2-00-16
 10
444.574
 20
219.303
 30
0.0
 40
0.132292
 41
0.132292
  0
VERTEX
  8
CE2-00-16
 10
444.652
 20
219.48
 30
0.0
 40
0.132292
 41
0.132292
  0
VERTEX
  8
CE2-00-16
 10
444.722
 20
219.658
 30
0.0
 40
0.132292
 41
0.132292
  0
VERTEX
  8
CE2-00-16
 10
445.05
 20
220.147
 30
0.0
 40
0.132292
 41
0.132292
  0
VERTEX
  8
CE2-00-16
 10
445.615
 20
220.658
 30
0.0
 40
0.132292
 41
0.132292
  0
VERTEX
  8
CE2-00-16
 10
446.306
 20
220.985
 30
0.0
 40
0.132292
 41
0.132292
  0
VERTEX
  8
CE2-00-16
 10
446.881
 20
221.099
 30
0.0
 40
0.132292
 41
0.132292
  0
VERTEX
  8
CE2-00-16
 10
447.075
 20
221.099
 30
0.0
 40
0.132292
 41
0.132292
  0
SEQEND
 8
0
  0
POLYLINE
  8
CE2-00-16
 66
     1
 10
0
 20
0
 30
0.0
 70
     1
 40
0.375
 41
0.375
  0
VERTEX
  8
CE2-00-16
 10
447.075
 20
12.7496
 30
0.0
 40
0.132292
 41
0.132292
  0
VERTEX
  8
CE2-00-16
 10
447.329
 20
12.7496
 30
0.0
 40
0.132292
 41
0.132292
  0
VERTEX
  8
CE2-00-16
 10
448.098
 20
12.5443
 30
0.0
 40
0.132292
 41
0.132292
  0
VERTEX
  8
CE2-00-16
 10
448.931
 20
11.9807
 30
0.0
 40
0.132292
 41
0.132292
  0
VERTEX
  8
CE2-00-16
 10
449.495
 20
11.147
 30
0.0
 40
0.132292
 41
0.132292
  0
VERTEX
  8
CE2-00-16
 10
449.7
 20
10.3808
 30
0.0
 40
0.132292
 41
0.132292
  0
VERTEX
  8
CE2-00-16
 10
449.7
 20
10.1244
 30
0.0
 40
0.132292
 41
0.132292
  0
VERTEX
  8
CE2-00-16
 10
449.7
 20
9.93292
 30
0.0
 40
0.132292
 41
0.132292
  0
VERTEX
  8
CE2-00-16
 10
449.584
 20
9.35549
 30
0.0
 40
0.132292
 41
0.132292
  0
VERTEX
  8
CE2-00-16
 10
449.255
 20
8.66648
 30
0.0
 40
0.132292
 41
0.132292
  0
VERTEX
  8
CE2-00-16
 10
448.747
 20
8.10147
 30
0.0
 40
0.132292
 41
0.132292
  0
VERTEX
  8
CE2-00-16
 10
448.257
 20
7.77353
 30
0.0
 40
0.132292
 41
0.132292
  0
VERTEX
  8
CE2-00-16
 10
448.081
 20
7.69909
 30
0.0
 40
0.132292
 41
0.132292
  0
VERTEX
  8
CE2-00-16
 10
447.901
 20
7.62607
 30
0.0
 40
0.132292
 41
0.132292
  0
VERTEX
  8
CE2-00-16
 10
447.322
 20
7.5117
 30
0.0
 40
0.132292
 41
0.132292
  0
VERTEX
  8
CE2-00-16
 10
446.564
 20
7.55167
 30
0.0
 40
0.132292
 41
0.132292
  0
VERTEX
  8
CE2-00-16
 10
445.844
 20
7.80658
 30
0.0
 40
0.132292
 41
0.132292
  0
VERTEX
  8
CE2-00-16
 10
445.354
 20
8.13319
 30
0.0
 40
0.132292
 41
0.132292
  0
VERTEX
  8
CE2-00-16
 10
445.22
 20
8.26823
 30
0.0
 40
0.132292
 41
0.132292
  0
VERTEX
  8
CE2-00-16
 10
445.082
 20
8.40465
 30
0.0
 40
0.132292
 41
0.132292
  0
VERTEX
  8
CE2-00-16
 10
444.758
 20
8.89522
 30
0.0
 40
0.132292
 41
0.132292
  0
VERTEX
  8
CE2-00-16
 10
444.5
 20
9.61319
 30
0.0
 40
0.132292
 41
0.132292
  0
VERTEX
  8
CE2-00-16
 10
444.461
 20
10.3753
 30
0.0
 40
0.132292
 41
0.132292
  0
VERTEX
  8
CE2-00-16
 10
444.574
 20
10.9527
 30
0.0
 40
0.132292
 41
0.132292
  0
VERTEX
  8
CE2-00-16
 10
444.652
 20
11.129
 30
0.0
 40
0.132292
 41
0.132292
  0
VERTEX
  8
CE2-00-16
 10
444.722
 20
11.3068
 30
0.0
 40
0.132292
 41
0.132292
  0
VERTEX
  8
CE2-00-16
 10
445.05
 20
11.7974
 30
0.0
 40
0.132292
 41
0.132292
  0
VERTEX
  8
CE2-00-16
 10
445.615
 20
12.3073
 30
0.0
 40
0.132292
 41
0.132292
  0
VERTEX
  8
CE2-00-16
 10
446.306
 20
12.6352
 30
0.0
 40
0.132292
 41
0.132292
  0
VERTEX
  8
CE2-00-16
 10
446.881
 20
12.7496
 30
0.0
 40
0.132292
 41
0.132292
  0
VERTEX
  8
CE2-00-16
 10
447.075
 20
12.7496
 30
0.0
 40
0.132292
 41
0.132292
  0
SEQEND
 8
0
  0
POLYLINE
  8
CE2-00-16
 66
     1
 10
0
 20
0
 30
0.0
 70
     1
 40
0.375
 41
0.375
  0
VERTEX
  8
CE2-00-16
 10
14.2875
 20
103.188
 30
0.0
 40
0.132292
 41
0.132292
  0
VERTEX
  8
CE2-00-16
 10
47.625
 20
103.188
 30
0.0
 40
0.132292
 41
0.132292
  0
VERTEX
  8
CE2-00-16
 10
47.625
 20
69.85
 30
0.0
 40
0.132292
 41
0.132292
  0
VERTEX
  8
CE2-00-16
 10
14.2875
 20
69.85
 30
0.0
 40
0.132292
 41
0.132292
  0
VERTEX
  8
CE2-00-16
 10
14.2875
 20
103.188
 30
0.0
 40
0.132292
 41
0.132292
  0
SEQEND
 8
0
  0
POLYLINE
  8
CE2-00-16
 66
     1
 10
0
 20
0
 30
0.0
 70
     1
 40
0.375
 41
0.375
  0
VERTEX
  8
CE2-00-16
 10
14.2875
 20
214.313
 30
0.0
 40
0.132292
 41
0.132292
  0
VERTEX
  8
CE2-00-16
 10
47.625
 20
214.313
 30
0.0
 40
0.132292
 41
0.132292
  0
VERTEX
  8
CE2-00-16
 10
47.625
 20
180.975
 30
0.0
 40
0.132292
 41
0.132292
  0
VERTEX
  8
CE2-00-16
 10
14.2875
 20
180.975
 30
0.0
 40
0.132292
 41
0.132292
  0
VERTEX
  8
CE2-00-16
 10
14.2875
 20
214.313
 30
0.0
 40
0.132292
 41
0.132292
  0
SEQEND
 8
0
  0
POLYLINE
  8
CE2-00-16
 66
     1
 10
0
 20
0
 30
0.0
 70
     1
 40
0.375
 41
0.375
  0
VERTEX
  8
CE2-00-16
 10
70.7566
 20
47.625
 30
0.0
 40
0.132292
 41
0.132292
  0
VERTEX
  8
CE2-00-16
 10
104.094
 20
47.625
 30
0.0
 40
0.132292
 41
0.132292
  0
VERTEX
  8
CE2-00-16
 10
104.094
 20
14.2875
 30
0.0
 40
0.132292
 41
0.132292
  0
VERTEX
  8
CE2-00-16
 10
70.7566
 20
14.2875
 30
0.0
 40
0.132292
 41
0.132292
  0
VERTEX
  8
CE2-00-16
 10
70.7566
 20
47.625
 30
0.0
 40
0.132292
 41
0.132292
  0
SEQEND
 8
0
  0
POLYLINE
  8
CE2-00-16
 66
     1
 10
0
 20
0
 30
0.0
 70
     1
 40
0.375
 41
0.375
  0
VERTEX
  8
CE2-00-16
 10
70.7566
 20
158.75
 30
0.0
 40
0.132292
 41
0.132292
  0
VERTEX
  8
CE2-00-16
 10
104.094
 20
158.75
 30
0.0
 40
0.132292
 41
0.132292
  0
VERTEX
  8
CE2-00-16
 10
104.094
 20
125.413
 30
0.0
 40
0.132292
 41
0.132292
  0
VERTEX
  8
CE2-00-16
 10
70.7566
 20
125.413
 30
0.0
 40
0.132292
 41
0.132292
  0
VERTEX
  8
CE2-00-16
 10
70.7566
 20
158.75
 30
0.0
 40
0.132292
 41
0.132292
  0
SEQEND
 8
0
  0
POLYLINE
  8
CE2-00-16
 66
     1
 10
0
 20
0
 30
0.0
 70
     1
 40
0.375
 41
0.375
  0
VERTEX
  8
CE2-00-16
 10
127.228
 20
103.188
 30
0.0
 40
0.132292
 41
0.132292
  0
VERTEX
  8
CE2-00-16
 10
160.565
 20
103.188
 30
0.0
 40
0.132292
 41
0.132292
  0
VERTEX
  8
CE2-00-16
 10
160.565
 20
69.85
 30
0.0
 40
0.132292
 41
0.132292
  0
VERTEX
  8
CE2-00-16
 10
127.228
 20
69.85
 30
0.0
 40
0.132292
 41
0.132292
  0
VERTEX
  8
CE2-00-16
 10
127.228
 20
103.188
 30
0.0
 40
0.132292
 41
0.132292
  0
SEQEND
 8
0
  0
POLYLINE
  8
CE2-00-16
 66
     1
 10
0
 20
0
 30
0.0
 70
     1
 40
0.375
 41
0.375
  0
VERTEX
  8
CE2-00-16
 10
127.228
 20
214.313
 30
0.0
 40
0.132292
 41
0.132292
  0
VERTEX
  8
CE2-00-16
 10
160.565
 20
214.313
 30
0.0
 40
0.132292
 41
0.132292
  0
VERTEX
  8
CE2-00-16
 10
160.565
 20
180.975
 30
0.0
 40
0.132292
 41
0.132292
  0
VERTEX
  8
CE2-00-16
 10
127.228
 20
180.975
 30
0.0
 40
0.132292
 41
0.132292
  0
VERTEX
  8
CE2-00-16
 10
127.228
 20
214.313
 30
0.0
 40
0.132292
 41
0.132292
  0
SEQEND
 8
0
  0
POLYLINE
  8
CE2-00-16
 66
     1
 10
0
 20
0
 30
0.0
 70
     1
 40
0.375
 41
0.375
  0
VERTEX
  8
CE2-00-16
 10
183.697
 20
47.625
 30
0.0
 40
0.132292
 41
0.132292
  0
VERTEX
  8
CE2-00-16
 10
217.034
 20
47.625
 30
0.0
 40
0.132292
 41
0.132292
  0
VERTEX
  8
CE2-00-16
 10
217.034
 20
14.2875
 30
0.0
 40
0.132292
 41
0.132292
  0
VERTEX
  8
CE2-00-16
 10
183.697
 20
14.2875
 30
0.0
 40
0.132292
 41
0.132292
  0
VERTEX
  8
CE2-00-16
 10
183.697
 20
47.625
 30
0.0
 40
0.132292
 41
0.132292
  0
SEQEND
 8
0
  0
POLYLINE
  8
CE2-00-16
 66
     1
 10
0
 20
0
 30
0.0
 70
     1
 40
0.375
 41
0.375
  0
VERTEX
  8
CE2-00-16
 10
183.697
 20
158.75
 30
0.0
 40
0.132292
 41
0.132292
  0
VERTEX
  8
CE2-00-16
 10
217.034
 20
158.75
 30
0.0
 40
0.132292
 41
0.132292
  0
VERTEX
  8
CE2-00-16
 10
217.034
 20
125.413
 30
0.0
 40
0.132292
 41
0.132292
  0
VERTEX
  8
CE2-00-16
 10
183.697
 20
125.413
 30
0.0
 40
0.132292
 41
0.132292
  0
VERTEX
  8
CE2-00-16
 10
183.697
 20
158.75
 30
0.0
 40
0.132292
 41
0.132292
  0
SEQEND
 8
0
  0
POLYLINE
  8
CE2-00-16
 66
     1
 10
0
 20
0
 30
0.0
 70
     1
 40
0.375
 41
0.375
  0
VERTEX
  8
CE2-00-16
 10
240.166
 20
103.188
 30
0.0
 40
0.132292
 41
0.132292
  0
VERTEX
  8
CE2-00-16
 10
273.503
 20
103.188
 30
0.0
 40
0.132292
 41
0.132292
  0
VERTEX
  8
CE2-00-16
 10
273.503
 20
69.85
 30
0.0
 40
0.132292
 41
0.132292
  0
VERTEX
  8
CE2-00-16
 10
240.166
 20
69.85
 30
0.0
 40
0.132292
 41
0.132292
  0
VERTEX
  8
CE2-00-16
 10
240.166
 20
103.188
 30
0.0
 40
0.132292
 41
0.132292
  0
SEQEND
 8
0
  0
POLYLINE
  8
CE2-00-16
 66
     1
 10
0
 20
0
 30
0.0
 70
     1
 40
0.375
 41
0.375
  0
VERTEX
  8
CE2-00-16
 10
240.166
 20
214.313
 30
0.0
 40
0.132292
 41
0.132292
  0
VERTEX
  8
CE2-00-16
 10
273.503
 20
214.313
 30
0.0
 40
0.132292
 41
0.132292
  0
VERTEX
  8
CE2-00-16
 10
273.503
 20
180.975
 30
0.0
 40
0.132292
 41
0.132292
  0
VERTEX
  8
CE2-00-16
 10
240.166
 20
180.975
 30
0.0
 40
0.132292
 41
0.132292
  0
VERTEX
  8
CE2-00-16
 10
240.166
 20
214.313
 30
0.0
 40
0.132292
 41
0.132292
  0
SEQEND
 8
0
  0
POLYLINE
  8
CE2-00-16
 66
     1
 10
0
 20
0
 30
0.0
 70
     1
 40
0.375
 41
0.375
  0
VERTEX
  8
CE2-00-16
 10
296.635
 20
47.625
 30
0.0
 40
0.132292
 41
0.132292
  0
VERTEX
  8
CE2-00-16
 10
329.972
 20
47.625
 30
0.0
 40
0.132292
 41
0.132292
  0
VERTEX
  8
CE2-00-16
 10
329.972
 20
14.2875
 30
0.0
 40
0.132292
 41
0.132292
  0
VERTEX
  8
CE2-00-16
 10
296.635
 20
14.2875
 30
0.0
 40
0.132292
 41
0.132292
  0
VERTEX
  8
CE2-00-16
 10
296.635
 20
47.625
 30
0.0
 40
0.132292
 41
0.132292
  0
SEQEND
 8
0
  0
POLYLINE
  8
CE2-00-16
 66
     1
 10
0
 20
0
 30
0.0
 70
     1
 40
0.375
 41
0.375
  0
VERTEX
  8
CE2-00-16
 10
296.635
 20
158.75
 30
0.0
 40
0.132292
 41
0.132292
  0
VERTEX
  8
CE2-00-16
 10
329.972
 20
158.75
 30
0.0
 40
0.132292
 41
0.132292
  0
VERTEX
  8
CE2-00-16
 10
329.972
 20
125.413
 30
0.0
 40
0.132292
 41
0.132292
  0
VERTEX
  8
CE2-00-16
 10
296.635
 20
125.413
 30
0.0
 40
0.132292
 41
0.132292
  0
VERTEX
  8
CE2-00-16
 10
296.635
 20
158.75
 30
0.0
 40
0.132292
 41
0.132292
  0
SEQEND
 8
0
  0
POLYLINE
  8
CE2-00-16
 66
     1
 10
0
 20
0
 30
0.0
 70
     1
 40
0.375
 41
0.375
  0
VERTEX
  8
CE2-00-16
 10
353.106
 20
103.188
 30
0.0
 40
0.132292
 41
0.132292
  0
VERTEX
  8
CE2-00-16
 10
386.443
 20
103.188
 30
0.0
 40
0.132292
 41
0.132292
  0
VERTEX
  8
CE2-00-16
 10
386.443
 20
69.85
 30
0.0
 40
0.132292
 41
0.132292
  0
VERTEX
  8
CE2-00-16
 10
353.106
 20
69.85
 30
0.0
 40
0.132292
 41
0.132292
  0
VERTEX
  8
CE2-00-16
 10
353.106
 20
103.188
 30
0.0
 40
0.132292
 41
0.132292
  0
SEQEND
 8
0
  0
POLYLINE
  8
CE2-00-16
 66
     1
 10
0
 20
0
 30
0.0
 70
     1
 40
0.375
 41
0.375
  0
VERTEX
  8
CE2-00-16
 10
353.106
 20
214.313
 30
0.0
 40
0.132292
 41
0.132292
  0
VERTEX
  8
CE2-00-16
 10
386.443
 20
214.313
 30
0.0
 40
0.132292
 41
0.132292
  0
VERTEX
  8
CE2-00-16
 10
386.443
 20
180.975
 30
0.0
 40
0.132292
 41
0.132292
  0
VERTEX
  8
CE2-00-16
 10
353.106
 20
180.975
 30
0.0
 40
0.132292
 41
0.132292
  0
VERTEX
  8
CE2-00-16
 10
353.106
 20
214.313
 30
0.0
 40
0.132292
 41
0.132292
  0
SEQEND
 8
0
  0
POLYLINE
  8
CE2-00-16
 66
     1
 10
0
 20
0
 30
0.0
 70
     1
 40
0.375
 41
0.375
  0
VERTEX
  8
CE2-00-16
 10
409.575
 20
47.625
 30
0.0
 40
0.132292
 41
0.132292
  0
VERTEX
  8
CE2-00-16
 10
442.913
 20
47.625
 30
0.0
 40
0.132292
 41
0.132292
  0
VERTEX
  8
CE2-00-16
 10
442.913
 20
14.2875
 30
0.0
 40
0.132292
 41
0.132292
  0
VERTEX
  8
CE2-00-16
 10
409.575
 20
14.2875
 30
0.0
 40
0.132292
 41
0.132292
  0
VERTEX
  8
CE2-00-16
 10
409.575
 20
47.625
 30
0.0
 40
0.132292
 41
0.132292
  0
SEQEND
 8
0
  0
POLYLINE
  8
CE2-00-16
 66
     1
 10
0
 20
0
 30
0.0
 70
     1
 40
0.375
 41
0.375
  0
VERTEX
  8
CE2-00-16
 10
409.575
 20
158.75
 30
0.0
 40
0.132292
 41
0.132292
  0
VERTEX
  8
CE2-00-16
 10
442.913
 20
158.75
 30
0.0
 40
0.132292
 41
0.132292
  0
VERTEX
  8
CE2-00-16
 10
442.913
 20
125.413
 30
0.0
 40
0.132292
 41
0.132292
  0
VERTEX
  8
CE2-00-16
 10
409.575
 20
125.413
 30
0.0
 40
0.132292
 41
0.132292
  0
VERTEX
  8
CE2-00-16
 10
409.575
 20
158.75
 30
0.0
 40
0.132292
 41
0.132292
  0
SEQEND
 8
0
  0
ENDSEC
  0
EOF
